<mxfile host="app.diagrams.net" modified="2022-05-29T15:06:05.477Z" agent="5.0 (Macintosh; Intel Mac OS X 10_15_7) AppleWebKit/537.36 (KHTML, like Gecko) Chrome/101.0.4951.64 Safari/537.36" etag="FHCjJmKf94ZJ1nIlb8Yt" version="15.4.3" type="github">
  <diagram id="VsDaGVJNAe582SUY7Js9" name="Page-1">
    <mxGraphModel dx="1298" dy="732" grid="1" gridSize="10" guides="1" tooltips="1" connect="1" arrows="1" fold="1" page="1" pageScale="1" pageWidth="850" pageHeight="1100" math="0" shadow="0">
      <root>
        <mxCell id="0" />
        <mxCell id="1" parent="0" />
        <mxCell id="vx5Bsr7WImpNvYCGZw3s-2" value="EC2 (m6g.4xlarge)" style="points=[[0,0],[0.25,0],[0.5,0],[0.75,0],[1,0],[1,0.25],[1,0.5],[1,0.75],[1,1],[0.75,1],[0.5,1],[0.25,1],[0,1],[0,0.75],[0,0.5],[0,0.25]];outlineConnect=0;gradientColor=none;html=1;whiteSpace=wrap;fontSize=12;fontStyle=0;shape=mxgraph.aws4.group;grIcon=mxgraph.aws4.group_ec2_instance_contents;strokeColor=#D86613;fillColor=none;verticalAlign=top;align=left;spacingLeft=30;fontColor=#D86613;dashed=0;" vertex="1" parent="1">
          <mxGeometry x="40" y="40" width="440" height="360" as="geometry" />
        </mxCell>
        <mxCell id="vx5Bsr7WImpNvYCGZw3s-4" value="" style="rounded=0;whiteSpace=wrap;html=1;" vertex="1" parent="1">
          <mxGeometry x="80" y="80" width="360" height="280" as="geometry" />
        </mxCell>
        <mxCell id="vx5Bsr7WImpNvYCGZw3s-5" value="Apache2" style="text;html=1;strokeColor=none;fillColor=none;align=center;verticalAlign=middle;whiteSpace=wrap;rounded=0;" vertex="1" parent="1">
          <mxGeometry x="80" y="80" width="60" height="30" as="geometry" />
        </mxCell>
        <mxCell id="vx5Bsr7WImpNvYCGZw3s-6" value="BSB" style="rounded=0;whiteSpace=wrap;html=1;" vertex="1" parent="1">
          <mxGeometry x="146" y="126" width="220" height="60" as="geometry" />
        </mxCell>
        <mxCell id="vx5Bsr7WImpNvYCGZw3s-7" value="SMQ" style="rounded=0;whiteSpace=wrap;html=1;" vertex="1" parent="1">
          <mxGeometry x="146" y="186" width="220" height="60" as="geometry" />
        </mxCell>
        <mxCell id="vx5Bsr7WImpNvYCGZw3s-8" value="OMQ" style="rounded=0;whiteSpace=wrap;html=1;" vertex="1" parent="1">
          <mxGeometry x="146" y="246" width="220" height="60" as="geometry" />
        </mxCell>
      </root>
    </mxGraphModel>
  </diagram>
</mxfile>
